<mxfile host="65bd71144e">
    <diagram id="7vbgwipy4lcqNHVsVkeB" name="README">
        <mxGraphModel dx="1400" dy="406" grid="1" gridSize="10" guides="1" tooltips="1" connect="1" arrows="1" fold="1" page="1" pageScale="1" pageWidth="827" pageHeight="1169" math="0" shadow="0">
            <root>
                <mxCell id="zyG9-rcne_WZyjnVNCjm-0"/>
                <mxCell id="zyG9-rcne_WZyjnVNCjm-1" parent="zyG9-rcne_WZyjnVNCjm-0"/>
                <mxCell id="zyG9-rcne_WZyjnVNCjm-2" value="&lt;div style=&quot;text-align: justify&quot;&gt;以下の処理内容についてまとめました&lt;/div&gt;&lt;ul&gt;&lt;li style=&quot;text-align: justify&quot;&gt;Requestメソッド&lt;/li&gt;&lt;li style=&quot;text-align: justify&quot;&gt;フロント，バックで送受信する値&lt;/li&gt;&lt;li style=&quot;text-align: justify&quot;&gt;APIのドメイン&lt;/li&gt;&lt;/ul&gt;&lt;div style=&quot;text-align: justify&quot;&gt;&lt;br&gt;&lt;/div&gt;" style="rounded=1;whiteSpace=wrap;html=1;fontSize=18;" vertex="1" parent="zyG9-rcne_WZyjnVNCjm-1">
                    <mxGeometry x="209" y="40" width="410" height="320" as="geometry"/>
                </mxCell>
                <mxCell id="zyG9-rcne_WZyjnVNCjm-3" value="バックエンド" style="swimlane;" vertex="1" parent="zyG9-rcne_WZyjnVNCjm-1">
                    <mxGeometry x="394" y="430" width="370" height="360" as="geometry"/>
                </mxCell>
                <mxCell id="zyG9-rcne_WZyjnVNCjm-4" value="data" style="shape=table;startSize=30;container=1;collapsible=1;childLayout=tableLayout;fixedRows=1;rowLines=0;fontStyle=1;align=center;resizeLast=1;" vertex="1" parent="zyG9-rcne_WZyjnVNCjm-3">
                    <mxGeometry x="15" y="40" width="185" height="100" as="geometry"/>
                </mxCell>
                <mxCell id="zyG9-rcne_WZyjnVNCjm-5" value="" style="shape=partialRectangle;collapsible=0;dropTarget=0;pointerEvents=0;fillColor=none;top=0;left=0;bottom=0;right=0;points=[[0,0.5],[1,0.5]];portConstraint=eastwest;" vertex="1" parent="zyG9-rcne_WZyjnVNCjm-4">
                    <mxGeometry y="30" width="185" height="30" as="geometry"/>
                </mxCell>
                <mxCell id="zyG9-rcne_WZyjnVNCjm-6" value="status" style="shape=partialRectangle;connectable=0;fillColor=none;top=0;left=0;bottom=0;right=0;editable=1;overflow=hidden;" vertex="1" parent="zyG9-rcne_WZyjnVNCjm-5">
                    <mxGeometry width="80" height="30" as="geometry">
                        <mxRectangle width="80" height="30" as="alternateBounds"/>
                    </mxGeometry>
                </mxCell>
                <mxCell id="zyG9-rcne_WZyjnVNCjm-7" value="success / error" style="shape=partialRectangle;connectable=0;fillColor=none;top=0;left=0;bottom=0;right=0;align=left;spacingLeft=6;overflow=hidden;" vertex="1" parent="zyG9-rcne_WZyjnVNCjm-5">
                    <mxGeometry x="80" width="105" height="30" as="geometry">
                        <mxRectangle width="105" height="30" as="alternateBounds"/>
                    </mxGeometry>
                </mxCell>
                <mxCell id="zyG9-rcne_WZyjnVNCjm-8" value="" style="shape=partialRectangle;collapsible=0;dropTarget=0;pointerEvents=0;fillColor=none;top=0;left=0;bottom=0;right=0;points=[[0,0.5],[1,0.5]];portConstraint=eastwest;" vertex="1" parent="zyG9-rcne_WZyjnVNCjm-4">
                    <mxGeometry y="60" width="185" height="30" as="geometry"/>
                </mxCell>
                <mxCell id="zyG9-rcne_WZyjnVNCjm-9" value="オブジェクト" style="shape=partialRectangle;connectable=0;fillColor=none;top=0;left=0;bottom=0;right=0;fontStyle=0;overflow=hidden;" vertex="1" parent="zyG9-rcne_WZyjnVNCjm-8">
                    <mxGeometry width="80" height="30" as="geometry">
                        <mxRectangle width="80" height="30" as="alternateBounds"/>
                    </mxGeometry>
                </mxCell>
                <mxCell id="zyG9-rcne_WZyjnVNCjm-10" value="オブジェクト名" style="shape=partialRectangle;connectable=0;fillColor=none;top=0;left=0;bottom=0;right=0;align=left;spacingLeft=6;fontStyle=0;overflow=hidden;" vertex="1" parent="zyG9-rcne_WZyjnVNCjm-8">
                    <mxGeometry x="80" width="105" height="30" as="geometry">
                        <mxRectangle width="105" height="30" as="alternateBounds"/>
                    </mxGeometry>
                </mxCell>
                <mxCell id="zyG9-rcne_WZyjnVNCjm-11" value="articleList" style="shape=table;startSize=30;container=1;collapsible=1;childLayout=tableLayout;fixedRows=1;rowLines=0;fontStyle=1;align=center;resizeLast=1;" vertex="1" parent="zyG9-rcne_WZyjnVNCjm-3">
                    <mxGeometry x="15" y="175" width="185" height="130" as="geometry"/>
                </mxCell>
                <mxCell id="zyG9-rcne_WZyjnVNCjm-12" value="" style="shape=partialRectangle;collapsible=0;dropTarget=0;pointerEvents=0;fillColor=none;top=0;left=0;bottom=0;right=0;points=[[0,0.5],[1,0.5]];portConstraint=eastwest;" vertex="1" parent="zyG9-rcne_WZyjnVNCjm-11">
                    <mxGeometry y="30" width="185" height="30" as="geometry"/>
                </mxCell>
                <mxCell id="zyG9-rcne_WZyjnVNCjm-13" value="Integer" style="shape=partialRectangle;connectable=0;fillColor=none;top=0;left=0;bottom=0;right=0;editable=1;overflow=hidden;" vertex="1" parent="zyG9-rcne_WZyjnVNCjm-12">
                    <mxGeometry width="50" height="30" as="geometry">
                        <mxRectangle width="50" height="30" as="alternateBounds"/>
                    </mxGeometry>
                </mxCell>
                <mxCell id="zyG9-rcne_WZyjnVNCjm-14" value="id" style="shape=partialRectangle;connectable=0;fillColor=none;top=0;left=0;bottom=0;right=0;align=left;spacingLeft=6;overflow=hidden;" vertex="1" parent="zyG9-rcne_WZyjnVNCjm-12">
                    <mxGeometry x="50" width="135" height="30" as="geometry">
                        <mxRectangle width="135" height="30" as="alternateBounds"/>
                    </mxGeometry>
                </mxCell>
                <mxCell id="zyG9-rcne_WZyjnVNCjm-15" value="" style="shape=partialRectangle;collapsible=0;dropTarget=0;pointerEvents=0;fillColor=none;top=0;left=0;bottom=0;right=0;points=[[0,0.5],[1,0.5]];portConstraint=eastwest;" vertex="1" parent="zyG9-rcne_WZyjnVNCjm-11">
                    <mxGeometry y="60" width="185" height="30" as="geometry"/>
                </mxCell>
                <mxCell id="zyG9-rcne_WZyjnVNCjm-16" value="String" style="shape=partialRectangle;connectable=0;fillColor=none;top=0;left=0;bottom=0;right=0;fontStyle=0;overflow=hidden;" vertex="1" parent="zyG9-rcne_WZyjnVNCjm-15">
                    <mxGeometry width="50" height="30" as="geometry">
                        <mxRectangle width="50" height="30" as="alternateBounds"/>
                    </mxGeometry>
                </mxCell>
                <mxCell id="zyG9-rcne_WZyjnVNCjm-17" value="name" style="shape=partialRectangle;connectable=0;fillColor=none;top=0;left=0;bottom=0;right=0;align=left;spacingLeft=6;fontStyle=0;overflow=hidden;" vertex="1" parent="zyG9-rcne_WZyjnVNCjm-15">
                    <mxGeometry x="50" width="135" height="30" as="geometry">
                        <mxRectangle width="135" height="30" as="alternateBounds"/>
                    </mxGeometry>
                </mxCell>
                <mxCell id="zyG9-rcne_WZyjnVNCjm-18" value="" style="shape=partialRectangle;collapsible=0;dropTarget=0;pointerEvents=0;fillColor=none;top=0;left=0;bottom=0;right=0;points=[[0,0.5],[1,0.5]];portConstraint=eastwest;" vertex="1" parent="zyG9-rcne_WZyjnVNCjm-11">
                    <mxGeometry y="90" width="185" height="30" as="geometry"/>
                </mxCell>
                <mxCell id="zyG9-rcne_WZyjnVNCjm-19" value="List" style="shape=partialRectangle;connectable=0;fillColor=none;top=0;left=0;bottom=0;right=0;editable=1;overflow=hidden;" vertex="1" parent="zyG9-rcne_WZyjnVNCjm-18">
                    <mxGeometry width="50" height="30" as="geometry">
                        <mxRectangle width="50" height="30" as="alternateBounds"/>
                    </mxGeometry>
                </mxCell>
                <mxCell id="zyG9-rcne_WZyjnVNCjm-20" value="ランチリスト" style="shape=partialRectangle;connectable=0;fillColor=none;top=0;left=0;bottom=0;right=0;align=left;spacingLeft=6;overflow=hidden;" vertex="1" parent="zyG9-rcne_WZyjnVNCjm-18">
                    <mxGeometry x="50" width="135" height="30" as="geometry">
                        <mxRectangle width="135" height="30" as="alternateBounds"/>
                    </mxGeometry>
                </mxCell>
                <mxCell id="zyG9-rcne_WZyjnVNCjm-21" value="ランチリスト" style="shape=table;startSize=30;container=1;collapsible=1;childLayout=tableLayout;fixedRows=1;rowLines=0;fontStyle=1;align=center;resizeLast=1;" vertex="1" parent="zyG9-rcne_WZyjnVNCjm-3">
                    <mxGeometry x="240" y="245" width="120" height="70" as="geometry"/>
                </mxCell>
                <mxCell id="zyG9-rcne_WZyjnVNCjm-22" value="" style="shape=partialRectangle;collapsible=0;dropTarget=0;pointerEvents=0;fillColor=none;top=0;left=0;bottom=0;right=0;points=[[0,0.5],[1,0.5]];portConstraint=eastwest;" vertex="1" parent="zyG9-rcne_WZyjnVNCjm-21">
                    <mxGeometry y="30" width="120" height="30" as="geometry"/>
                </mxCell>
                <mxCell id="zyG9-rcne_WZyjnVNCjm-23" value="String" style="shape=partialRectangle;connectable=0;fillColor=none;top=0;left=0;bottom=0;right=0;editable=1;overflow=hidden;" vertex="1" parent="zyG9-rcne_WZyjnVNCjm-22">
                    <mxGeometry width="50" height="30" as="geometry">
                        <mxRectangle width="50" height="30" as="alternateBounds"/>
                    </mxGeometry>
                </mxCell>
                <mxCell id="zyG9-rcne_WZyjnVNCjm-24" value="店名" style="shape=partialRectangle;connectable=0;fillColor=none;top=0;left=0;bottom=0;right=0;align=left;spacingLeft=6;overflow=hidden;" vertex="1" parent="zyG9-rcne_WZyjnVNCjm-22">
                    <mxGeometry x="50" width="70" height="30" as="geometry">
                        <mxRectangle width="70" height="30" as="alternateBounds"/>
                    </mxGeometry>
                </mxCell>
                <mxCell id="zyG9-rcne_WZyjnVNCjm-25" value="" style="edgeStyle=entityRelationEdgeStyle;fontSize=12;html=1;endArrow=ERoneToMany;" edge="1" parent="zyG9-rcne_WZyjnVNCjm-3" source="zyG9-rcne_WZyjnVNCjm-11" target="zyG9-rcne_WZyjnVNCjm-8">
                    <mxGeometry width="100" height="100" relative="1" as="geometry">
                        <mxPoint x="81" y="290" as="sourcePoint"/>
                        <mxPoint x="181" y="190" as="targetPoint"/>
                    </mxGeometry>
                </mxCell>
                <mxCell id="zyG9-rcne_WZyjnVNCjm-26" value="" style="fontSize=12;html=1;endArrow=ERoneToMany;" edge="1" parent="zyG9-rcne_WZyjnVNCjm-3" source="zyG9-rcne_WZyjnVNCjm-21" target="zyG9-rcne_WZyjnVNCjm-18">
                    <mxGeometry width="100" height="100" relative="1" as="geometry">
                        <mxPoint x="209.99999999999977" y="295" as="sourcePoint"/>
                        <mxPoint x="230" y="390" as="targetPoint"/>
                    </mxGeometry>
                </mxCell>
                <mxCell id="zyG9-rcne_WZyjnVNCjm-27" value="&lt;span style=&quot;font-size: 14px&quot;&gt;&amp;nbsp;api / domain&amp;nbsp;&lt;/span&gt;" style="endArrow=open;endSize=12;dashed=1;html=1;" edge="1" parent="zyG9-rcne_WZyjnVNCjm-1" source="zyG9-rcne_WZyjnVNCjm-29" target="zyG9-rcne_WZyjnVNCjm-4">
                    <mxGeometry width="160" relative="1" as="geometry">
                        <mxPoint x="258" y="520" as="sourcePoint"/>
                        <mxPoint x="535" y="510.0000000000001" as="targetPoint"/>
                    </mxGeometry>
                </mxCell>
                <mxCell id="zyG9-rcne_WZyjnVNCjm-28" value="フロントエンド" style="swimlane;" vertex="1" parent="zyG9-rcne_WZyjnVNCjm-1">
                    <mxGeometry x="64" y="430" width="210" height="160" as="geometry"/>
                </mxCell>
                <mxCell id="zyG9-rcne_WZyjnVNCjm-29" value="リクエストメソッド" style="shape=table;startSize=30;container=1;collapsible=1;childLayout=tableLayout;fixedRows=1;rowLines=0;fontStyle=1;align=center;resizeLast=1;" vertex="1" parent="zyG9-rcne_WZyjnVNCjm-28">
                    <mxGeometry x="15" y="55" width="180" height="70" as="geometry"/>
                </mxCell>
                <mxCell id="zyG9-rcne_WZyjnVNCjm-30" value="" style="shape=partialRectangle;collapsible=0;dropTarget=0;pointerEvents=0;fillColor=none;top=0;left=0;bottom=0;right=0;points=[[0,0.5],[1,0.5]];portConstraint=eastwest;" vertex="1" parent="zyG9-rcne_WZyjnVNCjm-29">
                    <mxGeometry y="30" width="180" height="30" as="geometry"/>
                </mxCell>
                <mxCell id="zyG9-rcne_WZyjnVNCjm-31" value="型" style="shape=partialRectangle;connectable=0;fillColor=none;top=0;left=0;bottom=0;right=0;editable=1;overflow=hidden;" vertex="1" parent="zyG9-rcne_WZyjnVNCjm-30">
                    <mxGeometry width="71" height="30" as="geometry">
                        <mxRectangle width="71" height="30" as="alternateBounds"/>
                    </mxGeometry>
                </mxCell>
                <mxCell id="zyG9-rcne_WZyjnVNCjm-32" value="値" style="shape=partialRectangle;connectable=0;fillColor=none;top=0;left=0;bottom=0;right=0;align=left;spacingLeft=6;overflow=hidden;" vertex="1" parent="zyG9-rcne_WZyjnVNCjm-30">
                    <mxGeometry x="71" width="109" height="30" as="geometry">
                        <mxRectangle width="109" height="30" as="alternateBounds"/>
                    </mxGeometry>
                </mxCell>
                <mxCell id="zyG9-rcne_WZyjnVNCjm-33" value="" style="group" vertex="1" connectable="0" parent="zyG9-rcne_WZyjnVNCjm-1">
                    <mxGeometry x="63.999999999999986" y="580" width="170" height="210" as="geometry"/>
                </mxCell>
                <mxCell id="zyG9-rcne_WZyjnVNCjm-34" value="" style="shape=callout;whiteSpace=wrap;html=1;perimeter=calloutPerimeter;fontSize=18;strokeColor=#F0F0F0;position2=0.58;rotation=-180;size=30;position=0.53;" vertex="1" parent="zyG9-rcne_WZyjnVNCjm-33">
                    <mxGeometry x="1.4210854715202004e-14" width="170" height="210" as="geometry"/>
                </mxCell>
                <mxCell id="zyG9-rcne_WZyjnVNCjm-35" value="" style="group" vertex="1" connectable="0" parent="zyG9-rcne_WZyjnVNCjm-33">
                    <mxGeometry x="25.000000000000014" y="50" width="115" height="140" as="geometry"/>
                </mxCell>
                <mxCell id="zyG9-rcne_WZyjnVNCjm-36" value="GET" style="shape=table;startSize=30;container=1;collapsible=1;childLayout=tableLayout;fixedRows=1;rowLines=0;fontStyle=1;align=center;resizeLast=1;strokeColor=#F0F0F0;" vertex="1" parent="zyG9-rcne_WZyjnVNCjm-35">
                    <mxGeometry width="115" height="60" as="geometry"/>
                </mxCell>
                <mxCell id="zyG9-rcne_WZyjnVNCjm-37" value="" style="shape=partialRectangle;collapsible=0;dropTarget=0;pointerEvents=0;fillColor=none;top=0;left=0;bottom=0;right=0;points=[[0,0.5],[1,0.5]];portConstraint=eastwest;" vertex="1" parent="zyG9-rcne_WZyjnVNCjm-36">
                    <mxGeometry y="30" width="115" height="30" as="geometry"/>
                </mxCell>
                <mxCell id="zyG9-rcne_WZyjnVNCjm-38" value="パラメータ" style="shape=partialRectangle;connectable=0;fillColor=none;top=0;left=0;bottom=0;right=0;editable=1;overflow=hidden;" vertex="1" parent="zyG9-rcne_WZyjnVNCjm-37">
                    <mxGeometry width="71" height="30" as="geometry">
                        <mxRectangle width="71" height="30" as="alternateBounds"/>
                    </mxGeometry>
                </mxCell>
                <mxCell id="zyG9-rcne_WZyjnVNCjm-39" value="値" style="shape=partialRectangle;connectable=0;fillColor=none;top=0;left=0;bottom=0;right=0;align=left;spacingLeft=6;overflow=hidden;" vertex="1" parent="zyG9-rcne_WZyjnVNCjm-37">
                    <mxGeometry x="71" width="44" height="30" as="geometry">
                        <mxRectangle width="44" height="30" as="alternateBounds"/>
                    </mxGeometry>
                </mxCell>
                <mxCell id="zyG9-rcne_WZyjnVNCjm-40" value="POST" style="shape=table;startSize=30;container=1;collapsible=1;childLayout=tableLayout;fixedRows=1;rowLines=0;fontStyle=1;align=center;resizeLast=1;" vertex="1" parent="zyG9-rcne_WZyjnVNCjm-35">
                    <mxGeometry y="80" width="115" height="60" as="geometry"/>
                </mxCell>
                <mxCell id="zyG9-rcne_WZyjnVNCjm-41" value="" style="shape=partialRectangle;collapsible=0;dropTarget=0;pointerEvents=0;fillColor=none;top=0;left=0;bottom=0;right=0;points=[[0,0.5],[1,0.5]];portConstraint=eastwest;" vertex="1" parent="zyG9-rcne_WZyjnVNCjm-40">
                    <mxGeometry y="30" width="115" height="30" as="geometry"/>
                </mxCell>
                <mxCell id="zyG9-rcne_WZyjnVNCjm-42" value="型" style="shape=partialRectangle;connectable=0;fillColor=none;top=0;left=0;bottom=0;right=0;editable=1;overflow=hidden;" vertex="1" parent="zyG9-rcne_WZyjnVNCjm-41">
                    <mxGeometry width="71" height="30" as="geometry">
                        <mxRectangle width="71" height="30" as="alternateBounds"/>
                    </mxGeometry>
                </mxCell>
                <mxCell id="zyG9-rcne_WZyjnVNCjm-43" value="値" style="shape=partialRectangle;connectable=0;fillColor=none;top=0;left=0;bottom=0;right=0;align=left;spacingLeft=6;overflow=hidden;" vertex="1" parent="zyG9-rcne_WZyjnVNCjm-41">
                    <mxGeometry x="71" width="44" height="30" as="geometry">
                        <mxRectangle width="44" height="30" as="alternateBounds"/>
                    </mxGeometry>
                </mxCell>
            </root>
        </mxGraphModel>
    </diagram>
    <diagram id="v9VETwagrrA7NPCGI1sk" name="記事更新">
        <mxGraphModel dx="1400" dy="406" grid="1" gridSize="10" guides="1" tooltips="1" connect="1" arrows="1" fold="1" page="1" pageScale="1" pageWidth="827" pageHeight="1169" math="0" shadow="0">
            <root>
                <mxCell id="0"/>
                <mxCell id="1" parent="0"/>
                <mxCell id="JUk6Szf3xHXszClRvhza-1" value="Front" style="swimlane;" vertex="1" parent="1">
                    <mxGeometry x="40" y="60" width="320" height="380" as="geometry"/>
                </mxCell>
                <mxCell id="JUk6Szf3xHXszClRvhza-2" value="Post" style="shape=table;startSize=30;container=1;collapsible=1;childLayout=tableLayout;fixedRows=1;rowLines=0;fontStyle=1;align=center;resizeLast=1;" vertex="1" parent="JUk6Szf3xHXszClRvhza-1">
                    <mxGeometry x="70" y="70" width="180" height="190" as="geometry"/>
                </mxCell>
                <mxCell id="JUk6Szf3xHXszClRvhza-3" value="" style="shape=partialRectangle;collapsible=0;dropTarget=0;pointerEvents=0;fillColor=none;top=0;left=0;bottom=0;right=0;points=[[0,0.5],[1,0.5]];portConstraint=eastwest;" vertex="1" parent="JUk6Szf3xHXszClRvhza-2">
                    <mxGeometry y="30" width="180" height="30" as="geometry"/>
                </mxCell>
                <mxCell id="JUk6Szf3xHXszClRvhza-4" value="Integer" style="shape=partialRectangle;connectable=0;fillColor=none;top=0;left=0;bottom=0;right=0;editable=1;overflow=hidden;" vertex="1" parent="JUk6Szf3xHXszClRvhza-3">
                    <mxGeometry width="71" height="30" as="geometry">
                        <mxRectangle width="71" height="30" as="alternateBounds"/>
                    </mxGeometry>
                </mxCell>
                <mxCell id="JUk6Szf3xHXszClRvhza-5" value="articleId" style="shape=partialRectangle;connectable=0;fillColor=none;top=0;left=0;bottom=0;right=0;align=left;spacingLeft=6;overflow=hidden;" vertex="1" parent="JUk6Szf3xHXszClRvhza-3">
                    <mxGeometry x="71" width="109" height="30" as="geometry">
                        <mxRectangle width="109" height="30" as="alternateBounds"/>
                    </mxGeometry>
                </mxCell>
                <mxCell id="JUk6Szf3xHXszClRvhza-6" value="" style="shape=partialRectangle;collapsible=0;dropTarget=0;pointerEvents=0;fillColor=none;top=0;left=0;bottom=0;right=0;points=[[0,0.5],[1,0.5]];portConstraint=eastwest;" vertex="1" parent="JUk6Szf3xHXszClRvhza-2">
                    <mxGeometry y="60" width="180" height="30" as="geometry"/>
                </mxCell>
                <mxCell id="JUk6Szf3xHXszClRvhza-7" value="Integer" style="shape=partialRectangle;connectable=0;fillColor=none;top=0;left=0;bottom=0;right=0;editable=1;overflow=hidden;" vertex="1" parent="JUk6Szf3xHXszClRvhza-6">
                    <mxGeometry width="71" height="30" as="geometry">
                        <mxRectangle width="71" height="30" as="alternateBounds"/>
                    </mxGeometry>
                </mxCell>
                <mxCell id="JUk6Szf3xHXszClRvhza-8" value="guestId" style="shape=partialRectangle;connectable=0;fillColor=none;top=0;left=0;bottom=0;right=0;align=left;spacingLeft=6;overflow=hidden;" vertex="1" parent="JUk6Szf3xHXszClRvhza-6">
                    <mxGeometry x="71" width="109" height="30" as="geometry">
                        <mxRectangle width="109" height="30" as="alternateBounds"/>
                    </mxGeometry>
                </mxCell>
                <mxCell id="JUk6Szf3xHXszClRvhza-9" value="" style="shape=partialRectangle;collapsible=0;dropTarget=0;pointerEvents=0;fillColor=none;top=0;left=0;bottom=0;right=0;points=[[0,0.5],[1,0.5]];portConstraint=eastwest;" vertex="1" parent="JUk6Szf3xHXszClRvhza-2">
                    <mxGeometry y="90" width="180" height="30" as="geometry"/>
                </mxCell>
                <mxCell id="JUk6Szf3xHXszClRvhza-10" value="String" style="shape=partialRectangle;connectable=0;fillColor=none;top=0;left=0;bottom=0;right=0;editable=1;overflow=hidden;" vertex="1" parent="JUk6Szf3xHXszClRvhza-9">
                    <mxGeometry width="71" height="30" as="geometry">
                        <mxRectangle width="71" height="30" as="alternateBounds"/>
                    </mxGeometry>
                </mxCell>
                <mxCell id="JUk6Szf3xHXszClRvhza-11" value="title" style="shape=partialRectangle;connectable=0;fillColor=none;top=0;left=0;bottom=0;right=0;align=left;spacingLeft=6;overflow=hidden;" vertex="1" parent="JUk6Szf3xHXszClRvhza-9">
                    <mxGeometry x="71" width="109" height="30" as="geometry">
                        <mxRectangle width="109" height="30" as="alternateBounds"/>
                    </mxGeometry>
                </mxCell>
                <mxCell id="JUk6Szf3xHXszClRvhza-12" value="" style="shape=partialRectangle;collapsible=0;dropTarget=0;pointerEvents=0;fillColor=none;top=0;left=0;bottom=0;right=0;points=[[0,0.5],[1,0.5]];portConstraint=eastwest;" vertex="1" parent="JUk6Szf3xHXszClRvhza-2">
                    <mxGeometry y="120" width="180" height="30" as="geometry"/>
                </mxCell>
                <mxCell id="JUk6Szf3xHXszClRvhza-13" value="String" style="shape=partialRectangle;connectable=0;fillColor=none;top=0;left=0;bottom=0;right=0;editable=1;overflow=hidden;" vertex="1" parent="JUk6Szf3xHXszClRvhza-12">
                    <mxGeometry width="71" height="30" as="geometry">
                        <mxRectangle width="71" height="30" as="alternateBounds"/>
                    </mxGeometry>
                </mxCell>
                <mxCell id="JUk6Szf3xHXszClRvhza-14" value="content" style="shape=partialRectangle;connectable=0;fillColor=none;top=0;left=0;bottom=0;right=0;align=left;spacingLeft=6;overflow=hidden;" vertex="1" parent="JUk6Szf3xHXszClRvhza-12">
                    <mxGeometry x="71" width="109" height="30" as="geometry">
                        <mxRectangle width="109" height="30" as="alternateBounds"/>
                    </mxGeometry>
                </mxCell>
                <mxCell id="JUk6Szf3xHXszClRvhza-15" value="" style="shape=partialRectangle;collapsible=0;dropTarget=0;pointerEvents=0;fillColor=none;top=0;left=0;bottom=0;right=0;points=[[0,0.5],[1,0.5]];portConstraint=eastwest;" vertex="1" parent="JUk6Szf3xHXszClRvhza-2">
                    <mxGeometry y="150" width="180" height="30" as="geometry"/>
                </mxCell>
                <mxCell id="JUk6Szf3xHXszClRvhza-16" value="List" style="shape=partialRectangle;connectable=0;fillColor=none;top=0;left=0;bottom=0;right=0;editable=1;overflow=hidden;" vertex="1" parent="JUk6Szf3xHXszClRvhza-15">
                    <mxGeometry width="71" height="30" as="geometry">
                        <mxRectangle width="71" height="30" as="alternateBounds"/>
                    </mxGeometry>
                </mxCell>
                <mxCell id="JUk6Szf3xHXszClRvhza-17" value="tags" style="shape=partialRectangle;connectable=0;fillColor=none;top=0;left=0;bottom=0;right=0;align=left;spacingLeft=6;overflow=hidden;" vertex="1" parent="JUk6Szf3xHXszClRvhza-15">
                    <mxGeometry x="71" width="109" height="30" as="geometry">
                        <mxRectangle width="109" height="30" as="alternateBounds"/>
                    </mxGeometry>
                </mxCell>
                <mxCell id="JUk6Szf3xHXszClRvhza-18" value="tags" style="shape=table;startSize=30;container=1;collapsible=1;childLayout=tableLayout;fixedRows=1;rowLines=0;fontStyle=1;align=center;resizeLast=1;" vertex="1" parent="JUk6Szf3xHXszClRvhza-1">
                    <mxGeometry x="70" y="280" width="180" height="70" as="geometry"/>
                </mxCell>
                <mxCell id="JUk6Szf3xHXszClRvhza-19" value="" style="shape=partialRectangle;collapsible=0;dropTarget=0;pointerEvents=0;fillColor=none;top=0;left=0;bottom=0;right=0;points=[[0,0.5],[1,0.5]];portConstraint=eastwest;" vertex="1" parent="JUk6Szf3xHXszClRvhza-18">
                    <mxGeometry y="30" width="180" height="30" as="geometry"/>
                </mxCell>
                <mxCell id="JUk6Szf3xHXszClRvhza-20" value="Integer" style="shape=partialRectangle;connectable=0;fillColor=none;top=0;left=0;bottom=0;right=0;editable=1;overflow=hidden;" vertex="1" parent="JUk6Szf3xHXszClRvhza-19">
                    <mxGeometry width="71" height="30" as="geometry">
                        <mxRectangle width="71" height="30" as="alternateBounds"/>
                    </mxGeometry>
                </mxCell>
                <mxCell id="JUk6Szf3xHXszClRvhza-21" value="tag" style="shape=partialRectangle;connectable=0;fillColor=none;top=0;left=0;bottom=0;right=0;align=left;spacingLeft=6;overflow=hidden;" vertex="1" parent="JUk6Szf3xHXszClRvhza-19">
                    <mxGeometry x="71" width="109" height="30" as="geometry">
                        <mxRectangle width="109" height="30" as="alternateBounds"/>
                    </mxGeometry>
                </mxCell>
                <mxCell id="JUk6Szf3xHXszClRvhza-22" value="" style="edgeStyle=entityRelationEdgeStyle;fontSize=12;html=1;endArrow=ERoneToMany;" edge="1" parent="JUk6Szf3xHXszClRvhza-1" source="JUk6Szf3xHXszClRvhza-18" target="JUk6Szf3xHXszClRvhza-15">
                    <mxGeometry width="100" height="100" relative="1" as="geometry">
                        <mxPoint x="480" y="290" as="sourcePoint"/>
                        <mxPoint x="580" y="190" as="targetPoint"/>
                    </mxGeometry>
                </mxCell>
                <mxCell id="JUk6Szf3xHXszClRvhza-23" value="Back" style="swimlane;" vertex="1" parent="1">
                    <mxGeometry x="440" y="60" width="320" height="320" as="geometry"/>
                </mxCell>
                <mxCell id="JUk6Szf3xHXszClRvhza-24" value="data" style="shape=table;startSize=30;container=1;collapsible=1;childLayout=tableLayout;fixedRows=1;rowLines=0;fontStyle=1;align=center;resizeLast=1;" vertex="1" parent="JUk6Szf3xHXszClRvhza-23">
                    <mxGeometry x="70" y="130" width="180" height="70" as="geometry"/>
                </mxCell>
                <mxCell id="JUk6Szf3xHXszClRvhza-25" value="" style="shape=partialRectangle;collapsible=0;dropTarget=0;pointerEvents=0;fillColor=none;top=0;left=0;bottom=0;right=0;points=[[0,0.5],[1,0.5]];portConstraint=eastwest;" vertex="1" parent="JUk6Szf3xHXszClRvhza-24">
                    <mxGeometry y="30" width="180" height="30" as="geometry"/>
                </mxCell>
                <mxCell id="JUk6Szf3xHXszClRvhza-26" value="status" style="shape=partialRectangle;connectable=0;fillColor=none;top=0;left=0;bottom=0;right=0;editable=1;overflow=hidden;" vertex="1" parent="JUk6Szf3xHXszClRvhza-25">
                    <mxGeometry width="80" height="30" as="geometry">
                        <mxRectangle width="80" height="30" as="alternateBounds"/>
                    </mxGeometry>
                </mxCell>
                <mxCell id="JUk6Szf3xHXszClRvhza-27" value="success" style="shape=partialRectangle;connectable=0;fillColor=none;top=0;left=0;bottom=0;right=0;align=left;spacingLeft=6;overflow=hidden;" vertex="1" parent="JUk6Szf3xHXszClRvhza-25">
                    <mxGeometry x="80" width="100" height="30" as="geometry">
                        <mxRectangle width="100" height="30" as="alternateBounds"/>
                    </mxGeometry>
                </mxCell>
                <mxCell id="JUk6Szf3xHXszClRvhza-28" value="&lt;font style=&quot;font-size: 14px&quot;&gt;article / edit&lt;br&gt;&lt;/font&gt;" style="endArrow=open;endSize=12;dashed=1;html=1;" edge="1" parent="1" source="JUk6Szf3xHXszClRvhza-2" target="JUk6Szf3xHXszClRvhza-24">
                    <mxGeometry width="160" relative="1" as="geometry">
                        <mxPoint x="300" y="170" as="sourcePoint"/>
                        <mxPoint x="510" y="145" as="targetPoint"/>
                    </mxGeometry>
                </mxCell>
                <mxCell id="JUk6Szf3xHXszClRvhza-29" value="Front" style="swimlane;" vertex="1" parent="1">
                    <mxGeometry x="40" y="510" width="320" height="200" as="geometry"/>
                </mxCell>
                <mxCell id="JUk6Szf3xHXszClRvhza-30" value="Post" style="shape=table;startSize=30;container=1;collapsible=1;childLayout=tableLayout;fixedRows=1;rowLines=0;fontStyle=1;align=center;resizeLast=1;" vertex="1" parent="JUk6Szf3xHXszClRvhza-29">
                    <mxGeometry x="70" y="70" width="180" height="100" as="geometry"/>
                </mxCell>
                <mxCell id="JUk6Szf3xHXszClRvhza-31" value="" style="shape=partialRectangle;collapsible=0;dropTarget=0;pointerEvents=0;fillColor=none;top=0;left=0;bottom=0;right=0;points=[[0,0.5],[1,0.5]];portConstraint=eastwest;" vertex="1" parent="JUk6Szf3xHXszClRvhza-30">
                    <mxGeometry y="30" width="180" height="30" as="geometry"/>
                </mxCell>
                <mxCell id="JUk6Szf3xHXszClRvhza-32" value="Integer" style="shape=partialRectangle;connectable=0;fillColor=none;top=0;left=0;bottom=0;right=0;editable=1;overflow=hidden;" vertex="1" parent="JUk6Szf3xHXszClRvhza-31">
                    <mxGeometry width="71" height="30" as="geometry">
                        <mxRectangle width="71" height="30" as="alternateBounds"/>
                    </mxGeometry>
                </mxCell>
                <mxCell id="JUk6Szf3xHXszClRvhza-33" value="articleId" style="shape=partialRectangle;connectable=0;fillColor=none;top=0;left=0;bottom=0;right=0;align=left;spacingLeft=6;overflow=hidden;" vertex="1" parent="JUk6Szf3xHXszClRvhza-31">
                    <mxGeometry x="71" width="109" height="30" as="geometry">
                        <mxRectangle width="109" height="30" as="alternateBounds"/>
                    </mxGeometry>
                </mxCell>
                <mxCell id="JUk6Szf3xHXszClRvhza-34" value="" style="shape=partialRectangle;collapsible=0;dropTarget=0;pointerEvents=0;fillColor=none;top=0;left=0;bottom=0;right=0;points=[[0,0.5],[1,0.5]];portConstraint=eastwest;" vertex="1" parent="JUk6Szf3xHXszClRvhza-30">
                    <mxGeometry y="60" width="180" height="30" as="geometry"/>
                </mxCell>
                <mxCell id="JUk6Szf3xHXszClRvhza-35" value="Integer" style="shape=partialRectangle;connectable=0;fillColor=none;top=0;left=0;bottom=0;right=0;editable=1;overflow=hidden;" vertex="1" parent="JUk6Szf3xHXszClRvhza-34">
                    <mxGeometry width="71" height="30" as="geometry">
                        <mxRectangle width="71" height="30" as="alternateBounds"/>
                    </mxGeometry>
                </mxCell>
                <mxCell id="JUk6Szf3xHXszClRvhza-36" value="guestId" style="shape=partialRectangle;connectable=0;fillColor=none;top=0;left=0;bottom=0;right=0;align=left;spacingLeft=6;overflow=hidden;" vertex="1" parent="JUk6Szf3xHXszClRvhza-34">
                    <mxGeometry x="71" width="109" height="30" as="geometry">
                        <mxRectangle width="109" height="30" as="alternateBounds"/>
                    </mxGeometry>
                </mxCell>
                <mxCell id="JUk6Szf3xHXszClRvhza-37" value="Back" style="swimlane;" vertex="1" parent="1">
                    <mxGeometry x="440" y="510" width="320" height="200" as="geometry"/>
                </mxCell>
                <mxCell id="JUk6Szf3xHXszClRvhza-38" value="data" style="shape=table;startSize=30;container=1;collapsible=1;childLayout=tableLayout;fixedRows=1;rowLines=0;fontStyle=1;align=center;resizeLast=1;" vertex="1" parent="JUk6Szf3xHXszClRvhza-37">
                    <mxGeometry x="70" y="85" width="180" height="70" as="geometry"/>
                </mxCell>
                <mxCell id="JUk6Szf3xHXszClRvhza-39" value="" style="shape=partialRectangle;collapsible=0;dropTarget=0;pointerEvents=0;fillColor=none;top=0;left=0;bottom=0;right=0;points=[[0,0.5],[1,0.5]];portConstraint=eastwest;" vertex="1" parent="JUk6Szf3xHXszClRvhza-38">
                    <mxGeometry y="30" width="180" height="30" as="geometry"/>
                </mxCell>
                <mxCell id="JUk6Szf3xHXszClRvhza-40" value="status" style="shape=partialRectangle;connectable=0;fillColor=none;top=0;left=0;bottom=0;right=0;editable=1;overflow=hidden;" vertex="1" parent="JUk6Szf3xHXszClRvhza-39">
                    <mxGeometry width="80" height="30" as="geometry">
                        <mxRectangle width="80" height="30" as="alternateBounds"/>
                    </mxGeometry>
                </mxCell>
                <mxCell id="JUk6Szf3xHXszClRvhza-41" value="success" style="shape=partialRectangle;connectable=0;fillColor=none;top=0;left=0;bottom=0;right=0;align=left;spacingLeft=6;overflow=hidden;" vertex="1" parent="JUk6Szf3xHXszClRvhza-39">
                    <mxGeometry x="80" width="100" height="30" as="geometry">
                        <mxRectangle width="100" height="30" as="alternateBounds"/>
                    </mxGeometry>
                </mxCell>
                <mxCell id="JUk6Szf3xHXszClRvhza-42" value="&lt;font style=&quot;font-size: 14px&quot;&gt;article / delete&lt;br&gt;&lt;/font&gt;" style="endArrow=open;endSize=12;dashed=1;html=1;" edge="1" parent="1" source="JUk6Szf3xHXszClRvhza-30" target="JUk6Szf3xHXszClRvhza-38">
                    <mxGeometry width="160" relative="1" as="geometry">
                        <mxPoint x="300" y="620" as="sourcePoint"/>
                        <mxPoint x="510" y="595" as="targetPoint"/>
                    </mxGeometry>
                </mxCell>
                <mxCell id="JUk6Szf3xHXszClRvhza-43" value="記事削除" style="rounded=1;arcSize=10;whiteSpace=wrap;html=1;align=center;fontSize=14;" vertex="1" parent="1">
                    <mxGeometry x="40" y="470" width="100" height="40" as="geometry"/>
                </mxCell>
                <mxCell id="JUk6Szf3xHXszClRvhza-44" value="記事更新" style="rounded=1;arcSize=10;whiteSpace=wrap;html=1;align=center;fontSize=14;" vertex="1" parent="1">
                    <mxGeometry x="40" y="20" width="100" height="40" as="geometry"/>
                </mxCell>
            </root>
        </mxGraphModel>
    </diagram>
    <diagram id="8dv9CSs2QeAoFRioQcIg" name="ユーザー情報更新">
        <mxGraphModel dx="1400" dy="406" grid="1" gridSize="10" guides="1" tooltips="1" connect="1" arrows="1" fold="1" page="1" pageScale="1" pageWidth="827" pageHeight="1169" math="0" shadow="0">
            <root>
                <mxCell id="NogBlUuOwduFiWFSnzTe-0"/>
                <mxCell id="NogBlUuOwduFiWFSnzTe-1" parent="NogBlUuOwduFiWFSnzTe-0"/>
                <mxCell id="kZnrCBnTM9KprPFNBGD9-0" value="Front" style="swimlane;" vertex="1" parent="NogBlUuOwduFiWFSnzTe-1">
                    <mxGeometry x="54" y="60" width="326" height="460" as="geometry"/>
                </mxCell>
                <mxCell id="kZnrCBnTM9KprPFNBGD9-1" value="Post" style="shape=table;startSize=30;container=1;collapsible=1;childLayout=tableLayout;fixedRows=1;rowLines=0;fontStyle=1;align=center;resizeLast=1;" vertex="1" parent="kZnrCBnTM9KprPFNBGD9-0">
                    <mxGeometry x="70" y="55" width="180" height="250" as="geometry"/>
                </mxCell>
                <mxCell id="kZnrCBnTM9KprPFNBGD9-2" value="" style="shape=partialRectangle;collapsible=0;dropTarget=0;pointerEvents=0;fillColor=none;top=0;left=0;bottom=0;right=0;points=[[0,0.5],[1,0.5]];portConstraint=eastwest;" vertex="1" parent="kZnrCBnTM9KprPFNBGD9-1">
                    <mxGeometry y="30" width="180" height="30" as="geometry"/>
                </mxCell>
                <mxCell id="kZnrCBnTM9KprPFNBGD9-3" value="Integer" style="shape=partialRectangle;connectable=0;fillColor=none;top=0;left=0;bottom=0;right=0;editable=1;overflow=hidden;" vertex="1" parent="kZnrCBnTM9KprPFNBGD9-2">
                    <mxGeometry width="71" height="30" as="geometry">
                        <mxRectangle width="71" height="30" as="alternateBounds"/>
                    </mxGeometry>
                </mxCell>
                <mxCell id="kZnrCBnTM9KprPFNBGD9-4" value="userInfoId" style="shape=partialRectangle;connectable=0;fillColor=none;top=0;left=0;bottom=0;right=0;align=left;spacingLeft=6;overflow=hidden;" vertex="1" parent="kZnrCBnTM9KprPFNBGD9-2">
                    <mxGeometry x="71" width="109" height="30" as="geometry">
                        <mxRectangle width="109" height="30" as="alternateBounds"/>
                    </mxGeometry>
                </mxCell>
                <mxCell id="kZnrCBnTM9KprPFNBGD9-5" value="" style="shape=partialRectangle;collapsible=0;dropTarget=0;pointerEvents=0;fillColor=none;top=0;left=0;bottom=0;right=0;points=[[0,0.5],[1,0.5]];portConstraint=eastwest;" vertex="1" parent="kZnrCBnTM9KprPFNBGD9-1">
                    <mxGeometry y="60" width="180" height="30" as="geometry"/>
                </mxCell>
                <mxCell id="kZnrCBnTM9KprPFNBGD9-6" value="String" style="shape=partialRectangle;connectable=0;fillColor=none;top=0;left=0;bottom=0;right=0;editable=1;overflow=hidden;" vertex="1" parent="kZnrCBnTM9KprPFNBGD9-5">
                    <mxGeometry width="71" height="30" as="geometry">
                        <mxRectangle width="71" height="30" as="alternateBounds"/>
                    </mxGeometry>
                </mxCell>
                <mxCell id="kZnrCBnTM9KprPFNBGD9-7" value="userName" style="shape=partialRectangle;connectable=0;fillColor=none;top=0;left=0;bottom=0;right=0;align=left;spacingLeft=6;overflow=hidden;" vertex="1" parent="kZnrCBnTM9KprPFNBGD9-5">
                    <mxGeometry x="71" width="109" height="30" as="geometry">
                        <mxRectangle width="109" height="30" as="alternateBounds"/>
                    </mxGeometry>
                </mxCell>
                <mxCell id="kZnrCBnTM9KprPFNBGD9-8" value="" style="shape=partialRectangle;collapsible=0;dropTarget=0;pointerEvents=0;fillColor=none;top=0;left=0;bottom=0;right=0;points=[[0,0.5],[1,0.5]];portConstraint=eastwest;" vertex="1" parent="kZnrCBnTM9KprPFNBGD9-1">
                    <mxGeometry y="90" width="180" height="30" as="geometry"/>
                </mxCell>
                <mxCell id="kZnrCBnTM9KprPFNBGD9-9" value="image" style="shape=partialRectangle;connectable=0;fillColor=none;top=0;left=0;bottom=0;right=0;editable=1;overflow=hidden;" vertex="1" parent="kZnrCBnTM9KprPFNBGD9-8">
                    <mxGeometry width="71" height="30" as="geometry">
                        <mxRectangle width="71" height="30" as="alternateBounds"/>
                    </mxGeometry>
                </mxCell>
                <mxCell id="kZnrCBnTM9KprPFNBGD9-10" value="image" style="shape=partialRectangle;connectable=0;fillColor=none;top=0;left=0;bottom=0;right=0;align=left;spacingLeft=6;overflow=hidden;" vertex="1" parent="kZnrCBnTM9KprPFNBGD9-8">
                    <mxGeometry x="71" width="109" height="30" as="geometry">
                        <mxRectangle width="109" height="30" as="alternateBounds"/>
                    </mxGeometry>
                </mxCell>
                <mxCell id="kZnrCBnTM9KprPFNBGD9-11" value="" style="shape=partialRectangle;collapsible=0;dropTarget=0;pointerEvents=0;fillColor=none;top=0;left=0;bottom=0;right=0;points=[[0,0.5],[1,0.5]];portConstraint=eastwest;" vertex="1" parent="kZnrCBnTM9KprPFNBGD9-1">
                    <mxGeometry y="120" width="180" height="30" as="geometry"/>
                </mxCell>
                <mxCell id="kZnrCBnTM9KprPFNBGD9-12" value="String" style="shape=partialRectangle;connectable=0;fillColor=none;top=0;left=0;bottom=0;right=0;editable=1;overflow=hidden;" vertex="1" parent="kZnrCBnTM9KprPFNBGD9-11">
                    <mxGeometry width="71" height="30" as="geometry">
                        <mxRectangle width="71" height="30" as="alternateBounds"/>
                    </mxGeometry>
                </mxCell>
                <mxCell id="kZnrCBnTM9KprPFNBGD9-13" value="email" style="shape=partialRectangle;connectable=0;fillColor=none;top=0;left=0;bottom=0;right=0;align=left;spacingLeft=6;overflow=hidden;" vertex="1" parent="kZnrCBnTM9KprPFNBGD9-11">
                    <mxGeometry x="71" width="109" height="30" as="geometry">
                        <mxRectangle width="109" height="30" as="alternateBounds"/>
                    </mxGeometry>
                </mxCell>
                <mxCell id="kZnrCBnTM9KprPFNBGD9-14" value="" style="shape=partialRectangle;collapsible=0;dropTarget=0;pointerEvents=0;fillColor=none;top=0;left=0;bottom=0;right=0;points=[[0,0.5],[1,0.5]];portConstraint=eastwest;" vertex="1" parent="kZnrCBnTM9KprPFNBGD9-1">
                    <mxGeometry y="150" width="180" height="30" as="geometry"/>
                </mxCell>
                <mxCell id="kZnrCBnTM9KprPFNBGD9-15" value="String" style="shape=partialRectangle;connectable=0;fillColor=none;top=0;left=0;bottom=0;right=0;editable=1;overflow=hidden;" vertex="1" parent="kZnrCBnTM9KprPFNBGD9-14">
                    <mxGeometry width="71" height="30" as="geometry">
                        <mxRectangle width="71" height="30" as="alternateBounds"/>
                    </mxGeometry>
                </mxCell>
                <mxCell id="kZnrCBnTM9KprPFNBGD9-16" value="engineerType" style="shape=partialRectangle;connectable=0;fillColor=none;top=0;left=0;bottom=0;right=0;align=left;spacingLeft=6;overflow=hidden;" vertex="1" parent="kZnrCBnTM9KprPFNBGD9-14">
                    <mxGeometry x="71" width="109" height="30" as="geometry">
                        <mxRectangle width="109" height="30" as="alternateBounds"/>
                    </mxGeometry>
                </mxCell>
                <mxCell id="kZnrCBnTM9KprPFNBGD9-17" value="" style="shape=partialRectangle;collapsible=0;dropTarget=0;pointerEvents=0;fillColor=none;top=0;left=0;bottom=0;right=0;points=[[0,0.5],[1,0.5]];portConstraint=eastwest;" vertex="1" parent="kZnrCBnTM9KprPFNBGD9-1">
                    <mxGeometry y="180" width="180" height="30" as="geometry"/>
                </mxCell>
                <mxCell id="kZnrCBnTM9KprPFNBGD9-18" value="String" style="shape=partialRectangle;connectable=0;fillColor=none;top=0;left=0;bottom=0;right=0;editable=1;overflow=hidden;" vertex="1" parent="kZnrCBnTM9KprPFNBGD9-17">
                    <mxGeometry width="71" height="30" as="geometry">
                        <mxRectangle width="71" height="30" as="alternateBounds"/>
                    </mxGeometry>
                </mxCell>
                <mxCell id="kZnrCBnTM9KprPFNBGD9-19" value="discription" style="shape=partialRectangle;connectable=0;fillColor=none;top=0;left=0;bottom=0;right=0;align=left;spacingLeft=6;overflow=hidden;" vertex="1" parent="kZnrCBnTM9KprPFNBGD9-17">
                    <mxGeometry x="71" width="109" height="30" as="geometry">
                        <mxRectangle width="109" height="30" as="alternateBounds"/>
                    </mxGeometry>
                </mxCell>
                <mxCell id="kZnrCBnTM9KprPFNBGD9-20" value="" style="shape=partialRectangle;collapsible=0;dropTarget=0;pointerEvents=0;fillColor=none;top=0;left=0;bottom=0;right=0;points=[[0,0.5],[1,0.5]];portConstraint=eastwest;" vertex="1" parent="kZnrCBnTM9KprPFNBGD9-1">
                    <mxGeometry y="210" width="180" height="30" as="geometry"/>
                </mxCell>
                <mxCell id="kZnrCBnTM9KprPFNBGD9-21" value="List" style="shape=partialRectangle;connectable=0;fillColor=none;top=0;left=0;bottom=0;right=0;editable=1;overflow=hidden;" vertex="1" parent="kZnrCBnTM9KprPFNBGD9-20">
                    <mxGeometry width="71" height="30" as="geometry">
                        <mxRectangle width="71" height="30" as="alternateBounds"/>
                    </mxGeometry>
                </mxCell>
                <mxCell id="kZnrCBnTM9KprPFNBGD9-22" value="tags" style="shape=partialRectangle;connectable=0;fillColor=none;top=0;left=0;bottom=0;right=0;align=left;spacingLeft=6;overflow=hidden;" vertex="1" parent="kZnrCBnTM9KprPFNBGD9-20">
                    <mxGeometry x="71" width="109" height="30" as="geometry">
                        <mxRectangle width="109" height="30" as="alternateBounds"/>
                    </mxGeometry>
                </mxCell>
                <mxCell id="kZnrCBnTM9KprPFNBGD9-23" value="Back" style="swimlane;" vertex="1" parent="NogBlUuOwduFiWFSnzTe-1">
                    <mxGeometry x="454" y="60" width="320" height="290" as="geometry"/>
                </mxCell>
                <mxCell id="kZnrCBnTM9KprPFNBGD9-24" value="data" style="shape=table;startSize=30;container=1;collapsible=1;childLayout=tableLayout;fixedRows=1;rowLines=0;fontStyle=1;align=center;resizeLast=1;" vertex="1" parent="kZnrCBnTM9KprPFNBGD9-23">
                    <mxGeometry x="50" y="145" width="220" height="70" as="geometry"/>
                </mxCell>
                <mxCell id="kZnrCBnTM9KprPFNBGD9-25" value="" style="shape=partialRectangle;collapsible=0;dropTarget=0;pointerEvents=0;fillColor=none;top=0;left=0;bottom=0;right=0;points=[[0,0.5],[1,0.5]];portConstraint=eastwest;" vertex="1" parent="kZnrCBnTM9KprPFNBGD9-24">
                    <mxGeometry y="30" width="220" height="30" as="geometry"/>
                </mxCell>
                <mxCell id="kZnrCBnTM9KprPFNBGD9-26" value="status" style="shape=partialRectangle;connectable=0;fillColor=none;top=0;left=0;bottom=0;right=0;editable=1;overflow=hidden;" vertex="1" parent="kZnrCBnTM9KprPFNBGD9-25">
                    <mxGeometry width="80" height="30" as="geometry">
                        <mxRectangle width="80" height="30" as="alternateBounds"/>
                    </mxGeometry>
                </mxCell>
                <mxCell id="kZnrCBnTM9KprPFNBGD9-27" value="success / error" style="shape=partialRectangle;connectable=0;fillColor=none;top=0;left=0;bottom=0;right=0;align=left;spacingLeft=6;overflow=hidden;" vertex="1" parent="kZnrCBnTM9KprPFNBGD9-25">
                    <mxGeometry x="80" width="140" height="30" as="geometry">
                        <mxRectangle width="140" height="30" as="alternateBounds"/>
                    </mxGeometry>
                </mxCell>
                <mxCell id="kZnrCBnTM9KprPFNBGD9-28" value="&lt;font style=&quot;font-size: 14px&quot;&gt;user / edit&lt;/font&gt;" style="endArrow=open;endSize=12;dashed=1;html=1;" edge="1" parent="NogBlUuOwduFiWFSnzTe-1" source="kZnrCBnTM9KprPFNBGD9-1" target="kZnrCBnTM9KprPFNBGD9-24">
                    <mxGeometry width="160" relative="1" as="geometry">
                        <mxPoint x="310" y="145" as="sourcePoint"/>
                        <mxPoint x="510" y="145" as="targetPoint"/>
                    </mxGeometry>
                </mxCell>
                <mxCell id="kZnrCBnTM9KprPFNBGD9-29" value="tags" style="shape=table;startSize=30;container=1;collapsible=1;childLayout=tableLayout;fixedRows=1;rowLines=0;fontStyle=1;align=center;resizeLast=1;" vertex="1" parent="NogBlUuOwduFiWFSnzTe-1">
                    <mxGeometry x="154" y="430" width="150" height="70" as="geometry"/>
                </mxCell>
                <mxCell id="kZnrCBnTM9KprPFNBGD9-30" value="" style="shape=partialRectangle;collapsible=0;dropTarget=0;pointerEvents=0;fillColor=none;top=0;left=0;bottom=0;right=0;points=[[0,0.5],[1,0.5]];portConstraint=eastwest;" vertex="1" parent="kZnrCBnTM9KprPFNBGD9-29">
                    <mxGeometry y="30" width="150" height="30" as="geometry"/>
                </mxCell>
                <mxCell id="kZnrCBnTM9KprPFNBGD9-31" value="Integer" style="shape=partialRectangle;connectable=0;fillColor=none;top=0;left=0;bottom=0;right=0;editable=1;overflow=hidden;" vertex="1" parent="kZnrCBnTM9KprPFNBGD9-30">
                    <mxGeometry width="60" height="30" as="geometry">
                        <mxRectangle width="60" height="30" as="alternateBounds"/>
                    </mxGeometry>
                </mxCell>
                <mxCell id="kZnrCBnTM9KprPFNBGD9-32" value="tag" style="shape=partialRectangle;connectable=0;fillColor=none;top=0;left=0;bottom=0;right=0;align=left;spacingLeft=6;overflow=hidden;" vertex="1" parent="kZnrCBnTM9KprPFNBGD9-30">
                    <mxGeometry x="60" width="90" height="30" as="geometry">
                        <mxRectangle width="90" height="30" as="alternateBounds"/>
                    </mxGeometry>
                </mxCell>
                <mxCell id="kZnrCBnTM9KprPFNBGD9-33" value="" style="edgeStyle=entityRelationEdgeStyle;fontSize=12;html=1;endArrow=ERoneToMany;" edge="1" parent="NogBlUuOwduFiWFSnzTe-1" source="kZnrCBnTM9KprPFNBGD9-29" target="kZnrCBnTM9KprPFNBGD9-20">
                    <mxGeometry width="100" height="100" relative="1" as="geometry">
                        <mxPoint x="430" y="360" as="sourcePoint"/>
                        <mxPoint x="530" y="260" as="targetPoint"/>
                    </mxGeometry>
                </mxCell>
                <mxCell id="kZnrCBnTM9KprPFNBGD9-34" value="ユーザー情報更新" style="rounded=1;arcSize=10;whiteSpace=wrap;html=1;align=center;fontSize=14;" vertex="1" parent="NogBlUuOwduFiWFSnzTe-1">
                    <mxGeometry x="54" y="20" width="126" height="40" as="geometry"/>
                </mxCell>
                <mxCell id="kZnrCBnTM9KprPFNBGD9-35" value="Front" style="swimlane;" vertex="1" parent="NogBlUuOwduFiWFSnzTe-1">
                    <mxGeometry x="54" y="640" width="330" height="370" as="geometry"/>
                </mxCell>
                <mxCell id="kZnrCBnTM9KprPFNBGD9-36" value="Post" style="shape=table;startSize=30;container=1;collapsible=1;childLayout=tableLayout;fixedRows=1;rowLines=0;fontStyle=1;align=center;resizeLast=1;" vertex="1" parent="kZnrCBnTM9KprPFNBGD9-35">
                    <mxGeometry x="45" y="55" width="260" height="100" as="geometry"/>
                </mxCell>
                <mxCell id="kZnrCBnTM9KprPFNBGD9-37" value="" style="shape=partialRectangle;collapsible=0;dropTarget=0;pointerEvents=0;fillColor=none;top=0;left=0;bottom=0;right=0;points=[[0,0.5],[1,0.5]];portConstraint=eastwest;" vertex="1" parent="kZnrCBnTM9KprPFNBGD9-36">
                    <mxGeometry y="30" width="260" height="30" as="geometry"/>
                </mxCell>
                <mxCell id="kZnrCBnTM9KprPFNBGD9-38" value="String" style="shape=partialRectangle;connectable=0;fillColor=none;top=0;left=0;bottom=0;right=0;editable=1;overflow=hidden;" vertex="1" parent="kZnrCBnTM9KprPFNBGD9-37">
                    <mxGeometry width="71" height="30" as="geometry">
                        <mxRectangle width="71" height="30" as="alternateBounds"/>
                    </mxGeometry>
                </mxCell>
                <mxCell id="kZnrCBnTM9KprPFNBGD9-39" value="email (マイページ表示時に取得)" style="shape=partialRectangle;connectable=0;fillColor=none;top=0;left=0;bottom=0;right=0;align=left;spacingLeft=6;overflow=hidden;" vertex="1" parent="kZnrCBnTM9KprPFNBGD9-37">
                    <mxGeometry x="71" width="189" height="30" as="geometry">
                        <mxRectangle width="189" height="30" as="alternateBounds"/>
                    </mxGeometry>
                </mxCell>
                <mxCell id="kZnrCBnTM9KprPFNBGD9-40" value="" style="shape=partialRectangle;collapsible=0;dropTarget=0;pointerEvents=0;fillColor=none;top=0;left=0;bottom=0;right=0;points=[[0,0.5],[1,0.5]];portConstraint=eastwest;" vertex="1" parent="kZnrCBnTM9KprPFNBGD9-36">
                    <mxGeometry y="60" width="260" height="30" as="geometry"/>
                </mxCell>
                <mxCell id="kZnrCBnTM9KprPFNBGD9-41" value="String" style="shape=partialRectangle;connectable=0;fillColor=none;top=0;left=0;bottom=0;right=0;editable=1;overflow=hidden;" vertex="1" parent="kZnrCBnTM9KprPFNBGD9-40">
                    <mxGeometry width="71" height="30" as="geometry">
                        <mxRectangle width="71" height="30" as="alternateBounds"/>
                    </mxGeometry>
                </mxCell>
                <mxCell id="kZnrCBnTM9KprPFNBGD9-42" value="password (現)" style="shape=partialRectangle;connectable=0;fillColor=none;top=0;left=0;bottom=0;right=0;align=left;spacingLeft=6;overflow=hidden;" vertex="1" parent="kZnrCBnTM9KprPFNBGD9-40">
                    <mxGeometry x="71" width="189" height="30" as="geometry">
                        <mxRectangle width="189" height="30" as="alternateBounds"/>
                    </mxGeometry>
                </mxCell>
                <mxCell id="kZnrCBnTM9KprPFNBGD9-43" value="Post" style="shape=table;startSize=30;container=1;collapsible=1;childLayout=tableLayout;fixedRows=1;rowLines=0;fontStyle=1;align=center;resizeLast=1;" vertex="1" parent="kZnrCBnTM9KprPFNBGD9-35">
                    <mxGeometry x="45" y="220" width="260" height="100" as="geometry"/>
                </mxCell>
                <mxCell id="kZnrCBnTM9KprPFNBGD9-44" value="" style="shape=partialRectangle;collapsible=0;dropTarget=0;pointerEvents=0;fillColor=none;top=0;left=0;bottom=0;right=0;points=[[0,0.5],[1,0.5]];portConstraint=eastwest;" vertex="1" parent="kZnrCBnTM9KprPFNBGD9-43">
                    <mxGeometry y="30" width="260" height="30" as="geometry"/>
                </mxCell>
                <mxCell id="kZnrCBnTM9KprPFNBGD9-45" value="String" style="shape=partialRectangle;connectable=0;fillColor=none;top=0;left=0;bottom=0;right=0;editable=1;overflow=hidden;" vertex="1" parent="kZnrCBnTM9KprPFNBGD9-44">
                    <mxGeometry width="71" height="30" as="geometry">
                        <mxRectangle width="71" height="30" as="alternateBounds"/>
                    </mxGeometry>
                </mxCell>
                <mxCell id="kZnrCBnTM9KprPFNBGD9-46" value="email (マイページ表示時に取得)" style="shape=partialRectangle;connectable=0;fillColor=none;top=0;left=0;bottom=0;right=0;align=left;spacingLeft=6;overflow=hidden;" vertex="1" parent="kZnrCBnTM9KprPFNBGD9-44">
                    <mxGeometry x="71" width="189" height="30" as="geometry">
                        <mxRectangle width="189" height="30" as="alternateBounds"/>
                    </mxGeometry>
                </mxCell>
                <mxCell id="kZnrCBnTM9KprPFNBGD9-47" value="" style="shape=partialRectangle;collapsible=0;dropTarget=0;pointerEvents=0;fillColor=none;top=0;left=0;bottom=0;right=0;points=[[0,0.5],[1,0.5]];portConstraint=eastwest;" vertex="1" parent="kZnrCBnTM9KprPFNBGD9-43">
                    <mxGeometry y="60" width="260" height="30" as="geometry"/>
                </mxCell>
                <mxCell id="kZnrCBnTM9KprPFNBGD9-48" value="String" style="shape=partialRectangle;connectable=0;fillColor=none;top=0;left=0;bottom=0;right=0;editable=1;overflow=hidden;" vertex="1" parent="kZnrCBnTM9KprPFNBGD9-47">
                    <mxGeometry width="71" height="30" as="geometry">
                        <mxRectangle width="71" height="30" as="alternateBounds"/>
                    </mxGeometry>
                </mxCell>
                <mxCell id="kZnrCBnTM9KprPFNBGD9-49" value="password (新)" style="shape=partialRectangle;connectable=0;fillColor=none;top=0;left=0;bottom=0;right=0;align=left;spacingLeft=6;overflow=hidden;" vertex="1" parent="kZnrCBnTM9KprPFNBGD9-47">
                    <mxGeometry x="71" width="189" height="30" as="geometry">
                        <mxRectangle width="189" height="30" as="alternateBounds"/>
                    </mxGeometry>
                </mxCell>
                <mxCell id="kZnrCBnTM9KprPFNBGD9-50" value="Back" style="swimlane;" vertex="1" parent="NogBlUuOwduFiWFSnzTe-1">
                    <mxGeometry x="454" y="640" width="320" height="370" as="geometry"/>
                </mxCell>
                <mxCell id="kZnrCBnTM9KprPFNBGD9-51" value="data" style="shape=table;startSize=30;container=1;collapsible=1;childLayout=tableLayout;fixedRows=1;rowLines=0;fontStyle=1;align=center;resizeLast=1;" vertex="1" parent="kZnrCBnTM9KprPFNBGD9-50">
                    <mxGeometry x="56" y="70" width="220" height="70" as="geometry"/>
                </mxCell>
                <mxCell id="kZnrCBnTM9KprPFNBGD9-52" value="" style="shape=partialRectangle;collapsible=0;dropTarget=0;pointerEvents=0;fillColor=none;top=0;left=0;bottom=0;right=0;points=[[0,0.5],[1,0.5]];portConstraint=eastwest;" vertex="1" parent="kZnrCBnTM9KprPFNBGD9-51">
                    <mxGeometry y="30" width="220" height="30" as="geometry"/>
                </mxCell>
                <mxCell id="kZnrCBnTM9KprPFNBGD9-53" value="status" style="shape=partialRectangle;connectable=0;fillColor=none;top=0;left=0;bottom=0;right=0;editable=1;overflow=hidden;" vertex="1" parent="kZnrCBnTM9KprPFNBGD9-52">
                    <mxGeometry width="80" height="30" as="geometry">
                        <mxRectangle width="80" height="30" as="alternateBounds"/>
                    </mxGeometry>
                </mxCell>
                <mxCell id="kZnrCBnTM9KprPFNBGD9-54" value="success / error" style="shape=partialRectangle;connectable=0;fillColor=none;top=0;left=0;bottom=0;right=0;align=left;spacingLeft=6;overflow=hidden;" vertex="1" parent="kZnrCBnTM9KprPFNBGD9-52">
                    <mxGeometry x="80" width="140" height="30" as="geometry">
                        <mxRectangle width="140" height="30" as="alternateBounds"/>
                    </mxGeometry>
                </mxCell>
                <mxCell id="kZnrCBnTM9KprPFNBGD9-55" value="data" style="shape=table;startSize=30;container=1;collapsible=1;childLayout=tableLayout;fixedRows=1;rowLines=0;fontStyle=1;align=center;resizeLast=1;" vertex="1" parent="kZnrCBnTM9KprPFNBGD9-50">
                    <mxGeometry x="56" y="235" width="220" height="70" as="geometry"/>
                </mxCell>
                <mxCell id="kZnrCBnTM9KprPFNBGD9-56" value="" style="shape=partialRectangle;collapsible=0;dropTarget=0;pointerEvents=0;fillColor=none;top=0;left=0;bottom=0;right=0;points=[[0,0.5],[1,0.5]];portConstraint=eastwest;" vertex="1" parent="kZnrCBnTM9KprPFNBGD9-55">
                    <mxGeometry y="30" width="220" height="30" as="geometry"/>
                </mxCell>
                <mxCell id="kZnrCBnTM9KprPFNBGD9-57" value="status" style="shape=partialRectangle;connectable=0;fillColor=none;top=0;left=0;bottom=0;right=0;editable=1;overflow=hidden;" vertex="1" parent="kZnrCBnTM9KprPFNBGD9-56">
                    <mxGeometry width="80" height="30" as="geometry">
                        <mxRectangle width="80" height="30" as="alternateBounds"/>
                    </mxGeometry>
                </mxCell>
                <mxCell id="kZnrCBnTM9KprPFNBGD9-58" value="success / error" style="shape=partialRectangle;connectable=0;fillColor=none;top=0;left=0;bottom=0;right=0;align=left;spacingLeft=6;overflow=hidden;" vertex="1" parent="kZnrCBnTM9KprPFNBGD9-56">
                    <mxGeometry x="80" width="140" height="30" as="geometry">
                        <mxRectangle width="140" height="30" as="alternateBounds"/>
                    </mxGeometry>
                </mxCell>
                <mxCell id="kZnrCBnTM9KprPFNBGD9-59" value="&lt;font style=&quot;font-size: 14px&quot;&gt;user / login&amp;nbsp;&lt;/font&gt;" style="endArrow=open;endSize=12;dashed=1;html=1;" edge="1" parent="NogBlUuOwduFiWFSnzTe-1" source="kZnrCBnTM9KprPFNBGD9-36" target="kZnrCBnTM9KprPFNBGD9-51">
                    <mxGeometry width="160" relative="1" as="geometry">
                        <mxPoint x="310" y="725" as="sourcePoint"/>
                        <mxPoint x="510" y="725" as="targetPoint"/>
                    </mxGeometry>
                </mxCell>
                <mxCell id="kZnrCBnTM9KprPFNBGD9-60" value="パスワード更新" style="rounded=1;arcSize=10;whiteSpace=wrap;html=1;align=center;fontSize=14;" vertex="1" parent="NogBlUuOwduFiWFSnzTe-1">
                    <mxGeometry x="54" y="600" width="126" height="40" as="geometry"/>
                </mxCell>
                <mxCell id="kZnrCBnTM9KprPFNBGD9-61" style="edgeStyle=orthogonalEdgeStyle;html=1;" edge="1" parent="NogBlUuOwduFiWFSnzTe-1" source="kZnrCBnTM9KprPFNBGD9-51" target="kZnrCBnTM9KprPFNBGD9-43">
                    <mxGeometry relative="1" as="geometry">
                        <Array as="points">
                            <mxPoint x="620" y="820"/>
                            <mxPoint x="229" y="820"/>
                        </Array>
                    </mxGeometry>
                </mxCell>
                <mxCell id="kZnrCBnTM9KprPFNBGD9-62" value="&lt;span style=&quot;font-size: 14px&quot;&gt;&amp;nbsp;/ reset&amp;nbsp;&lt;/span&gt;" style="endArrow=open;endSize=12;dashed=1;html=1;" edge="1" parent="NogBlUuOwduFiWFSnzTe-1" source="kZnrCBnTM9KprPFNBGD9-43" target="kZnrCBnTM9KprPFNBGD9-55">
                    <mxGeometry width="160" relative="1" as="geometry">
                        <mxPoint x="400" y="940" as="sourcePoint"/>
                        <mxPoint x="510" y="910" as="targetPoint"/>
                    </mxGeometry>
                </mxCell>
            </root>
        </mxGraphModel>
    </diagram>
    <diagram id="hpWwHULAy7Wo09-svhIE" name="パスワード更新">
        <mxGraphModel dx="1400" dy="406" grid="1" gridSize="10" guides="1" tooltips="1" connect="1" arrows="1" fold="1" page="1" pageScale="1" pageWidth="827" pageHeight="1169" math="0" shadow="0">
            <root>
                <mxCell id="YqY1bSl_xOnxNRmPJ0bH-0"/>
                <mxCell id="YqY1bSl_xOnxNRmPJ0bH-1" parent="YqY1bSl_xOnxNRmPJ0bH-0"/>
                <mxCell id="LEipj6G64eShdrTKq0ob-0" value="Front" style="swimlane;" vertex="1" parent="YqY1bSl_xOnxNRmPJ0bH-1">
                    <mxGeometry x="40" y="40" width="320" height="400" as="geometry"/>
                </mxCell>
                <mxCell id="LEipj6G64eShdrTKq0ob-1" style="edgeStyle=none;html=1;exitX=0.5;exitY=1;exitDx=0;exitDy=0;entryX=0.5;entryY=0;entryDx=0;entryDy=0;" edge="1" parent="LEipj6G64eShdrTKq0ob-0" source="LEipj6G64eShdrTKq0ob-2" target="LEipj6G64eShdrTKq0ob-6">
                    <mxGeometry relative="1" as="geometry"/>
                </mxCell>
                <mxCell id="LEipj6G64eShdrTKq0ob-2" value="Post" style="shape=table;startSize=30;container=1;collapsible=1;childLayout=tableLayout;fixedRows=1;rowLines=0;fontStyle=1;align=center;resizeLast=1;" vertex="1" parent="LEipj6G64eShdrTKq0ob-0">
                    <mxGeometry x="70" y="70" width="180" height="70" as="geometry"/>
                </mxCell>
                <mxCell id="LEipj6G64eShdrTKq0ob-3" value="" style="shape=partialRectangle;collapsible=0;dropTarget=0;pointerEvents=0;fillColor=none;top=0;left=0;bottom=0;right=0;points=[[0,0.5],[1,0.5]];portConstraint=eastwest;" vertex="1" parent="LEipj6G64eShdrTKq0ob-2">
                    <mxGeometry y="30" width="180" height="30" as="geometry"/>
                </mxCell>
                <mxCell id="LEipj6G64eShdrTKq0ob-4" value="String" style="shape=partialRectangle;connectable=0;fillColor=none;top=0;left=0;bottom=0;right=0;editable=1;overflow=hidden;" vertex="1" parent="LEipj6G64eShdrTKq0ob-3">
                    <mxGeometry width="71" height="30" as="geometry">
                        <mxRectangle width="71" height="30" as="alternateBounds"/>
                    </mxGeometry>
                </mxCell>
                <mxCell id="LEipj6G64eShdrTKq0ob-5" value="email" style="shape=partialRectangle;connectable=0;fillColor=none;top=0;left=0;bottom=0;right=0;align=left;spacingLeft=6;overflow=hidden;" vertex="1" parent="LEipj6G64eShdrTKq0ob-3">
                    <mxGeometry x="71" width="109" height="30" as="geometry">
                        <mxRectangle width="109" height="30" as="alternateBounds"/>
                    </mxGeometry>
                </mxCell>
                <mxCell id="LEipj6G64eShdrTKq0ob-6" value="Post" style="shape=table;startSize=30;container=1;collapsible=1;childLayout=tableLayout;fixedRows=1;rowLines=0;fontStyle=1;align=center;resizeLast=1;" vertex="1" parent="LEipj6G64eShdrTKq0ob-0">
                    <mxGeometry x="70" y="200" width="180" height="100" as="geometry"/>
                </mxCell>
                <mxCell id="LEipj6G64eShdrTKq0ob-7" value="" style="shape=partialRectangle;collapsible=0;dropTarget=0;pointerEvents=0;fillColor=none;top=0;left=0;bottom=0;right=0;points=[[0,0.5],[1,0.5]];portConstraint=eastwest;" vertex="1" parent="LEipj6G64eShdrTKq0ob-6">
                    <mxGeometry y="30" width="180" height="30" as="geometry"/>
                </mxCell>
                <mxCell id="LEipj6G64eShdrTKq0ob-8" value="String" style="shape=partialRectangle;connectable=0;fillColor=none;top=0;left=0;bottom=0;right=0;editable=1;overflow=hidden;" vertex="1" parent="LEipj6G64eShdrTKq0ob-7">
                    <mxGeometry width="71" height="30" as="geometry">
                        <mxRectangle width="71" height="30" as="alternateBounds"/>
                    </mxGeometry>
                </mxCell>
                <mxCell id="LEipj6G64eShdrTKq0ob-9" value="email" style="shape=partialRectangle;connectable=0;fillColor=none;top=0;left=0;bottom=0;right=0;align=left;spacingLeft=6;overflow=hidden;" vertex="1" parent="LEipj6G64eShdrTKq0ob-7">
                    <mxGeometry x="71" width="109" height="30" as="geometry">
                        <mxRectangle width="109" height="30" as="alternateBounds"/>
                    </mxGeometry>
                </mxCell>
                <mxCell id="LEipj6G64eShdrTKq0ob-10" value="" style="shape=partialRectangle;collapsible=0;dropTarget=0;pointerEvents=0;fillColor=none;top=0;left=0;bottom=0;right=0;points=[[0,0.5],[1,0.5]];portConstraint=eastwest;" vertex="1" parent="LEipj6G64eShdrTKq0ob-6">
                    <mxGeometry y="60" width="180" height="30" as="geometry"/>
                </mxCell>
                <mxCell id="LEipj6G64eShdrTKq0ob-11" value="String" style="shape=partialRectangle;connectable=0;fillColor=none;top=0;left=0;bottom=0;right=0;editable=1;overflow=hidden;" vertex="1" parent="LEipj6G64eShdrTKq0ob-10">
                    <mxGeometry width="71" height="30" as="geometry">
                        <mxRectangle width="71" height="30" as="alternateBounds"/>
                    </mxGeometry>
                </mxCell>
                <mxCell id="LEipj6G64eShdrTKq0ob-12" value="password" style="shape=partialRectangle;connectable=0;fillColor=none;top=0;left=0;bottom=0;right=0;align=left;spacingLeft=6;overflow=hidden;" vertex="1" parent="LEipj6G64eShdrTKq0ob-10">
                    <mxGeometry x="71" width="109" height="30" as="geometry">
                        <mxRectangle width="109" height="30" as="alternateBounds"/>
                    </mxGeometry>
                </mxCell>
                <mxCell id="LEipj6G64eShdrTKq0ob-13" value="Back" style="swimlane;" vertex="1" parent="YqY1bSl_xOnxNRmPJ0bH-1">
                    <mxGeometry x="440" y="40" width="320" height="400" as="geometry"/>
                </mxCell>
                <mxCell id="LEipj6G64eShdrTKq0ob-14" value="data" style="shape=table;startSize=30;container=1;collapsible=1;childLayout=tableLayout;fixedRows=1;rowLines=0;fontStyle=1;align=center;resizeLast=1;" vertex="1" parent="LEipj6G64eShdrTKq0ob-13">
                    <mxGeometry x="65" y="70" width="190" height="70" as="geometry"/>
                </mxCell>
                <mxCell id="LEipj6G64eShdrTKq0ob-15" value="" style="shape=partialRectangle;collapsible=0;dropTarget=0;pointerEvents=0;fillColor=none;top=0;left=0;bottom=0;right=0;points=[[0,0.5],[1,0.5]];portConstraint=eastwest;" vertex="1" parent="LEipj6G64eShdrTKq0ob-14">
                    <mxGeometry y="30" width="190" height="30" as="geometry"/>
                </mxCell>
                <mxCell id="LEipj6G64eShdrTKq0ob-16" value="status" style="shape=partialRectangle;connectable=0;fillColor=none;top=0;left=0;bottom=0;right=0;editable=1;overflow=hidden;" vertex="1" parent="LEipj6G64eShdrTKq0ob-15">
                    <mxGeometry width="71" height="30" as="geometry">
                        <mxRectangle width="71" height="30" as="alternateBounds"/>
                    </mxGeometry>
                </mxCell>
                <mxCell id="LEipj6G64eShdrTKq0ob-17" value="success / error" style="shape=partialRectangle;connectable=0;fillColor=none;top=0;left=0;bottom=0;right=0;align=left;spacingLeft=6;overflow=hidden;" vertex="1" parent="LEipj6G64eShdrTKq0ob-15">
                    <mxGeometry x="71" width="119" height="30" as="geometry">
                        <mxRectangle width="119" height="30" as="alternateBounds"/>
                    </mxGeometry>
                </mxCell>
                <mxCell id="LEipj6G64eShdrTKq0ob-18" value="data" style="shape=table;startSize=30;container=1;collapsible=1;childLayout=tableLayout;fixedRows=1;rowLines=0;fontStyle=1;align=center;resizeLast=1;" vertex="1" parent="LEipj6G64eShdrTKq0ob-13">
                    <mxGeometry x="65" y="215" width="190" height="70" as="geometry"/>
                </mxCell>
                <mxCell id="LEipj6G64eShdrTKq0ob-19" value="" style="shape=partialRectangle;collapsible=0;dropTarget=0;pointerEvents=0;fillColor=none;top=0;left=0;bottom=0;right=0;points=[[0,0.5],[1,0.5]];portConstraint=eastwest;" vertex="1" parent="LEipj6G64eShdrTKq0ob-18">
                    <mxGeometry y="30" width="190" height="30" as="geometry"/>
                </mxCell>
                <mxCell id="LEipj6G64eShdrTKq0ob-20" value="status" style="shape=partialRectangle;connectable=0;fillColor=none;top=0;left=0;bottom=0;right=0;editable=1;overflow=hidden;" vertex="1" parent="LEipj6G64eShdrTKq0ob-19">
                    <mxGeometry width="71" height="30" as="geometry">
                        <mxRectangle width="71" height="30" as="alternateBounds"/>
                    </mxGeometry>
                </mxCell>
                <mxCell id="LEipj6G64eShdrTKq0ob-21" value="success / error" style="shape=partialRectangle;connectable=0;fillColor=none;top=0;left=0;bottom=0;right=0;align=left;spacingLeft=6;overflow=hidden;" vertex="1" parent="LEipj6G64eShdrTKq0ob-19">
                    <mxGeometry x="71" width="119" height="30" as="geometry">
                        <mxRectangle width="119" height="30" as="alternateBounds"/>
                    </mxGeometry>
                </mxCell>
                <mxCell id="LEipj6G64eShdrTKq0ob-22" value="&lt;font style=&quot;font-size: 14px&quot;&gt;/ resetRequest&lt;/font&gt;" style="endArrow=open;endSize=12;dashed=1;html=1;" edge="1" parent="YqY1bSl_xOnxNRmPJ0bH-1" source="LEipj6G64eShdrTKq0ob-2" target="LEipj6G64eShdrTKq0ob-14">
                    <mxGeometry width="160" relative="1" as="geometry">
                        <mxPoint x="300" y="150" as="sourcePoint"/>
                        <mxPoint x="510" y="145" as="targetPoint"/>
                    </mxGeometry>
                </mxCell>
                <mxCell id="LEipj6G64eShdrTKq0ob-23" value="&lt;font style=&quot;font-size: 14px&quot;&gt;/ reset&lt;/font&gt;" style="endArrow=open;endSize=12;dashed=1;html=1;" edge="1" parent="YqY1bSl_xOnxNRmPJ0bH-1" source="LEipj6G64eShdrTKq0ob-6" target="LEipj6G64eShdrTKq0ob-18">
                    <mxGeometry width="160" relative="1" as="geometry">
                        <mxPoint x="304" y="270" as="sourcePoint"/>
                        <mxPoint x="480" y="270" as="targetPoint"/>
                    </mxGeometry>
                </mxCell>
            </root>
        </mxGraphModel>
    </diagram>
</mxfile>